<?xml version="1.0" standalone="no"?>
<!DOCTYPE svg PUBLIC "-//W3C//DTD SVG 20010904//EN"
 "http://www.w3.org/TR/2001/REC-SVG-20010904/DTD/svg10.dtd">
<svg version="1.0" xmlns="http://www.w3.org/2000/svg"
 width="200.000000pt" height="200.000000pt" viewBox="0 0 200.000000 200.000000"
 preserveAspectRatio="xMidYMid meet">
<metadata>
Created by potrace 1.10, written by Peter Selinger 2001-2011
</metadata>
<g transform="translate(0.000000,200.000000) scale(0.100000,-0.100000)"
fill="#000000" stroke="none">
<path d="M857 1861 c-32 -9 -55 -19 -52 -22 3 -4 -6 -4 -20 -2 -37 8 -157 -56
-245 -130 -141 -118 -199 -251 -210 -477 -6 -110 -11 -143 -28 -177 -12 -23
-22 -50 -22 -59 0 -16 49 -114 62 -124 19 -14 25 -57 12 -80 -7 -14 -13 -32
-13 -40 0 -10 3 -8 9 5 6 14 9 15 9 5 1 -9 -3 -20 -8 -25 -11 -12 -3 -65 10
-65 5 0 9 -8 9 -19 0 -42 44 -53 127 -31 50 13 130 71 120 88 -3 4 10 8 28 9
27 1 34 -2 37 -22 7 -34 -5 -48 -64 -74 -104 -46 -139 -66 -168 -96 -24 -26
-29 -39 -31 -92 -1 -35 1 -66 4 -70 4 -3 7 -19 7 -34 0 -88 92 -94 238 -17
102 53 218 127 253 160 47 45 82 104 76 128 -3 11 -1 18 3 15 5 -3 11 14 15
37 9 60 25 98 42 98 8 0 27 -7 42 -15 22 -11 59 -13 162 -11 129 4 137 5 212
40 104 47 214 157 245 243 21 57 43 189 38 228 -9 74 -20 126 -27 131 -5 3 -9
14 -9 25 0 10 -5 19 -12 19 -6 0 -9 3 -5 6 10 10 -62 133 -121 207 -29 38 -73
82 -95 98 -23 16 -49 35 -57 42 -36 29 -159 80 -180 74 -11 -3 -18 -2 -15 3 3
4 -17 13 -43 20 -68 19 -72 19 -72 9 0 -5 -12 -9 -27 -8 l-28 1 25 8 c18 6 7
8 -42 9 -37 1 -70 -3 -73 -9 -3 -5 -14 -10 -23 -9 -14 0 -13 2 3 9 37 16 -35
10 -98 -9z m318 -31 c44 -11 122 -40 173 -65 75 -36 107 -59 165 -118 80 -82
143 -183 183 -297 24 -70 26 -84 21 -195 -3 -66 -10 -133 -16 -148 -6 -16 -46
-67 -89 -113 -65 -72 -89 -90 -161 -124 -71 -35 -88 -39 -115 -31 -17 5 -48 8
-68 7 -21 -2 -38 0 -38 4 0 4 -16 7 -35 8 -19 1 -35 -2 -35 -7 0 -15 -60 -2
-90 21 -35 26 -38 38 -9 38 13 0 18 4 13 13 -5 8 -3 8 9 -2 9 -7 14 -17 11
-22 -3 -5 0 -9 6 -9 16 0 3 37 -21 61 -29 29 -23 44 24 64 l42 19 -43 4 c-24
2 -69 -3 -100 -10 -31 -7 -82 -11 -113 -9 -69 4 -141 -25 -216 -86 -29 -24
-62 -43 -72 -43 -12 0 -32 17 -49 43 -17 23 -42 53 -56 67 -23 21 -29 22 -36
10 -15 -23 -13 -28 25 -67 19 -20 35 -40 35 -45 0 -5 12 -24 26 -43 23 -30 27
-32 42 -19 33 30 93 64 112 64 10 0 27 11 38 25 18 22 65 36 60 18 -1 -5 3
-17 9 -28 9 -17 19 -19 62 -17 49 4 50 5 67 48 9 25 25 49 35 54 22 12 66 13
73 1 3 -5 -7 -46 -23 -92 -15 -46 -34 -116 -40 -154 -7 -39 -21 -83 -33 -100
-36 -53 -141 -129 -263 -190 -66 -33 -124 -65 -130 -71 -16 -18 -63 -26 -85
-14 -18 10 -20 21 -20 109 0 81 3 101 18 113 27 25 88 56 149 78 93 32 99 39
106 116 4 37 13 77 22 90 22 34 18 41 -10 14 -13 -12 -22 -27 -19 -31 3 -5 -9
-9 -26 -9 -36 0 -63 -14 -111 -58 -26 -24 -58 -40 -110 -53 -86 -24 -89 -22
-89 67 0 50 4 64 20 75 19 14 18 16 -25 84 -73 115 -71 107 -41 173 22 50 26
74 26 146 0 172 54 333 144 433 53 59 172 142 238 167 66 26 216 54 288 55 36
0 101 -8 145 -19z m-261 -936 c33 -13 14 -23 -36 -21 -29 1 -71 -2 -93 -6
l-40 -7 40 20 c40 19 98 26 129 14z m-10 -49 c-7 -17 -43 -29 -71 -23 -15 3
-13 7 12 21 39 21 66 22 59 2z"/>
<path d="M935 1739 c-126 -24 -215 -58 -245 -95 -18 -22 -57 -104 -42 -89 6 6
19 26 29 45 40 72 154 118 318 127 122 7 225 -16 349 -76 94 -46 133 -82 181
-171 40 -76 45 -74 11 4 -34 76 -101 138 -199 185 -137 65 -291 92 -402 70z"/>
<path d="M959 1716 c-2 -2 -22 -6 -45 -9 -49 -7 -160 -44 -191 -64 -12 -8 -26
-28 -32 -45 -6 -17 -24 -53 -41 -80 -53 -85 -65 -269 -22 -328 17 -22 62 -139
62 -158 -1 -17 -21 26 -31 65 -6 23 -17 47 -23 52 -12 10 25 -114 38 -126 4
-4 116 -8 249 -9 241 -3 242 -3 332 -33 62 -22 116 -33 175 -36 56 -3 76 -2
60 4 -23 8 -23 9 -3 10 12 1 30 4 40 7 15 5 15 4 3 -5 -13 -9 -13 -11 3 -11
10 0 17 7 17 18 0 10 7 27 15 38 24 35 37 145 25 222 -12 76 -62 219 -96 274
-58 92 -163 157 -318 197 -69 18 -204 29 -217 17z m250 -45 c148 -51 237 -122
287 -230 28 -60 27 -59 47 -139 7 -29 15 -51 17 -48 3 2 2 -39 -1 -92 -6 -94
-23 -151 -51 -168 -27 -17 -158 -3 -259 27 -100 29 -108 30 -311 30 -200 0
-209 1 -229 22 -10 12 -24 39 -30 62 -7 22 -18 55 -26 73 -15 35 -20 166 -8
220 3 18 22 62 40 97 19 36 32 65 28 65 -3 0 10 14 28 30 30 27 111 58 189 74
57 11 216 -2 279 -23z"/>
<path d="M395 1204 c14 -11 17 -17 8 -22 -7 -4 -14 -19 -15 -32 -3 -23 2 -25
58 -35 34 -5 68 -16 77 -23 21 -18 29 -58 17 -85 -11 -21 -11 -21 4 -3 34 43
13 90 -74 164 -34 28 -69 52 -78 52 -14 -1 -14 -3 3 -16z"/>
<path d="M1611 965 c-22 -30 -49 -53 -84 -69 -52 -25 -52 -25 -18 -25 28 -1
43 9 92 59 32 33 59 65 59 70 0 21 -18 8 -49 -35z"/>
<path d="M1303 846 c-15 -13 -36 -38 -46 -55 -27 -46 1 -41 46 9 34 38 38 40
96 40 42 0 61 4 61 13 0 8 -21 13 -65 14 -55 2 -68 -1 -92 -21z"/>
</g>
</svg>
